<mxfile host="app.diagrams.net" agent="Mozilla/5.0 (Windows NT 10.0; Win64; x64) AppleWebKit/537.36 (KHTML, like Gecko) Chrome/126.0.0.0 Safari/537.36" version="24.7.7">
  <diagram name="Page-1" id="xYsEX8dRRKA42pnCce7e">
    <mxGraphModel dx="954" dy="558" grid="1" gridSize="10" guides="1" tooltips="1" connect="1" arrows="1" fold="1" page="1" pageScale="1" pageWidth="827" pageHeight="1169" math="0" shadow="0">
      <root>
        <mxCell id="0" />
        <mxCell id="1" parent="0" />
        <mxCell id="IvEWuJT5kZCaxAGLGMHn-29" value="源端口号" style="rounded=0;whiteSpace=wrap;html=1;fontSize=14;fillColor=#f5f5f5;strokeColor=#666666;fontColor=#333333;" vertex="1" parent="1">
          <mxGeometry x="40" y="119" width="360" height="50" as="geometry" />
        </mxCell>
        <mxCell id="IvEWuJT5kZCaxAGLGMHn-30" value="目标端口号" style="rounded=0;whiteSpace=wrap;html=1;fontSize=14;fillColor=#f5f5f5;strokeColor=#666666;fontColor=#333333;" vertex="1" parent="1">
          <mxGeometry x="400" y="119" width="360" height="50" as="geometry" />
        </mxCell>
        <mxCell id="IvEWuJT5kZCaxAGLGMHn-31" value="顺序号" style="rounded=0;whiteSpace=wrap;html=1;fontSize=14;fillColor=#ffe6cc;strokeColor=#d79b00;" vertex="1" parent="1">
          <mxGeometry x="40" y="169" width="720" height="50" as="geometry" />
        </mxCell>
        <mxCell id="IvEWuJT5kZCaxAGLGMHn-32" value="确认号" style="rounded=0;whiteSpace=wrap;html=1;fontSize=14;fillColor=#fff2cc;strokeColor=#d6b656;" vertex="1" parent="1">
          <mxGeometry x="40" y="219" width="720" height="50" as="geometry" />
        </mxCell>
        <mxCell id="IvEWuJT5kZCaxAGLGMHn-33" value="窗口大小" style="rounded=0;whiteSpace=wrap;html=1;fontSize=14;fillColor=#f5f5f5;strokeColor=#666666;fontColor=#333333;" vertex="1" parent="1">
          <mxGeometry x="400" y="269" width="360" height="50" as="geometry" />
        </mxCell>
        <mxCell id="IvEWuJT5kZCaxAGLGMHn-34" value="头部长度" style="rounded=0;whiteSpace=wrap;html=1;fontSize=14;fillColor=#f5f5f5;strokeColor=#666666;fontColor=#333333;" vertex="1" parent="1">
          <mxGeometry x="40" y="269" width="60" height="50" as="geometry" />
        </mxCell>
        <mxCell id="IvEWuJT5kZCaxAGLGMHn-35" value="保留" style="rounded=0;whiteSpace=wrap;html=1;fontSize=14;fillColor=#f5f5f5;strokeColor=#666666;fontColor=#333333;" vertex="1" parent="1">
          <mxGeometry x="100" y="269" width="60" height="50" as="geometry" />
        </mxCell>
        <mxCell id="IvEWuJT5kZCaxAGLGMHn-38" value="U&lt;div style=&quot;font-size: 14px;&quot;&gt;R&lt;/div&gt;&lt;div style=&quot;font-size: 14px;&quot;&gt;G&lt;/div&gt;" style="rounded=0;whiteSpace=wrap;html=1;fontSize=14;fillColor=#f5f5f5;strokeColor=#666666;fontColor=#333333;" vertex="1" parent="1">
          <mxGeometry x="160" y="269" width="40" height="50" as="geometry" />
        </mxCell>
        <mxCell id="IvEWuJT5kZCaxAGLGMHn-44" value="A&lt;div style=&quot;font-size: 14px;&quot;&gt;C&lt;/div&gt;&lt;div style=&quot;font-size: 14px;&quot;&gt;K&lt;/div&gt;" style="rounded=0;whiteSpace=wrap;html=1;fontSize=14;fillColor=#b0e3e6;strokeColor=#0e8088;" vertex="1" parent="1">
          <mxGeometry x="200" y="269" width="40" height="50" as="geometry" />
        </mxCell>
        <mxCell id="IvEWuJT5kZCaxAGLGMHn-45" value="P&lt;div style=&quot;font-size: 14px;&quot;&gt;S&lt;/div&gt;&lt;div style=&quot;font-size: 14px;&quot;&gt;H&lt;/div&gt;" style="rounded=0;whiteSpace=wrap;html=1;fontSize=14;fillColor=#f5f5f5;strokeColor=#666666;fontColor=#333333;" vertex="1" parent="1">
          <mxGeometry x="240" y="269" width="40" height="50" as="geometry" />
        </mxCell>
        <mxCell id="IvEWuJT5kZCaxAGLGMHn-46" value="R&lt;div style=&quot;font-size: 14px;&quot;&gt;S&lt;/div&gt;&lt;div style=&quot;font-size: 14px;&quot;&gt;T&lt;/div&gt;" style="rounded=0;whiteSpace=wrap;html=1;fontSize=14;fillColor=#f8cecc;strokeColor=#b85450;" vertex="1" parent="1">
          <mxGeometry x="280" y="269" width="40" height="50" as="geometry" />
        </mxCell>
        <mxCell id="IvEWuJT5kZCaxAGLGMHn-47" value="S&lt;div style=&quot;font-size: 14px;&quot;&gt;Y&lt;/div&gt;&lt;div style=&quot;font-size: 14px;&quot;&gt;N&lt;/div&gt;" style="rounded=0;whiteSpace=wrap;html=1;fontSize=14;fillColor=#e1d5e7;strokeColor=#9673a6;" vertex="1" parent="1">
          <mxGeometry x="320" y="269" width="40" height="50" as="geometry" />
        </mxCell>
        <mxCell id="IvEWuJT5kZCaxAGLGMHn-48" value="F&lt;div style=&quot;font-size: 14px;&quot;&gt;I&lt;/div&gt;&lt;div style=&quot;font-size: 14px;&quot;&gt;N&lt;/div&gt;" style="rounded=0;whiteSpace=wrap;html=1;fontSize=14;fillColor=#e3c800;strokeColor=#B09500;fontColor=#000000;" vertex="1" parent="1">
          <mxGeometry x="360" y="269" width="40" height="50" as="geometry" />
        </mxCell>
        <mxCell id="IvEWuJT5kZCaxAGLGMHn-49" value="可选项" style="rounded=0;whiteSpace=wrap;html=1;fontSize=14;fillColor=#f5f5f5;fontColor=#333333;strokeColor=#666666;" vertex="1" parent="1">
          <mxGeometry x="40" y="369" width="720" height="50" as="geometry" />
        </mxCell>
        <mxCell id="IvEWuJT5kZCaxAGLGMHn-50" value="数据" style="rounded=0;whiteSpace=wrap;html=1;fontSize=14;fillColor=#f5f5f5;fontColor=#333333;strokeColor=#666666;" vertex="1" parent="1">
          <mxGeometry x="40" y="419" width="720" height="50" as="geometry" />
        </mxCell>
        <mxCell id="IvEWuJT5kZCaxAGLGMHn-51" value="校验和" style="rounded=0;whiteSpace=wrap;html=1;fontSize=14;fillColor=#f5f5f5;fontColor=#333333;strokeColor=#666666;" vertex="1" parent="1">
          <mxGeometry x="40" y="319" width="360" height="50" as="geometry" />
        </mxCell>
        <mxCell id="IvEWuJT5kZCaxAGLGMHn-52" value="紧急指针" style="rounded=0;whiteSpace=wrap;html=1;fontSize=14;fillColor=#f5f5f5;fontColor=#333333;strokeColor=#666666;" vertex="1" parent="1">
          <mxGeometry x="400" y="319" width="360" height="50" as="geometry" />
        </mxCell>
      </root>
    </mxGraphModel>
  </diagram>
</mxfile>
